<svg xmlns="http://www.w3.org/2000/svg" width="109" height="108" viewBox="0 0 109 108" fill="none"><g clip-path="url(#clip0_402_21)"><path d="M13.8081 108C3.6708 108 0.949951 99.5742 0.949951 95.0979V12.9021C0.949951 0.263308 13.3254 0 13.852 0H96.0918C108.731 0 108.95 12.3316 108.994 12.8582V95.0979C108.994 107.737 96.6623 107.956 96.1356 108H13.8081ZM13.852 3.02804C12.7988 3.02804 3.97799 3.37911 3.97799 12.9021V95.1418C3.97799 96.1512 4.28518 105.016 13.8081 105.016H96.0479C97.0572 105.016 105.922 104.665 105.922 95.1857V12.946C105.922 11.9366 105.571 3.07192 96.0918 3.07192L13.852 3.02804Z" fill="#1D1D1B"></path><path d="M55.0157 51.7838C49.0913 51.7838 44.264 47.0004 44.264 41.076C44.264 35.1516 49.0913 30.3681 55.0157 30.3681C60.9402 30.3681 65.7675 35.1516 65.7675 41.076C65.7675 47.0004 60.9402 51.7838 55.0157 51.7838ZM55.0596 24.2243C45.8 24.2243 38.2518 31.7286 38.2518 40.9882C38.2518 50.2479 45.7561 57.7521 55.0596 57.7521C64.3632 57.7521 71.8674 50.2479 71.8674 40.9882C71.8674 31.7725 64.3632 24.2243 55.0596 24.2243Z" fill="#1D1D1B"></path><path d="M36.5403 41.2954C36.5403 42.8314 35.2677 44.104 33.7317 44.104C32.1957 44.104 30.9231 42.8314 30.9231 41.2954C30.9231 39.7595 32.1957 38.4868 33.7317 38.4868C35.2677 38.4868 36.5403 39.7595 36.5403 41.2954Z" fill="#EE7203"></path><path d="M39.3051 51.8277C39.3051 53.3637 38.0324 54.6363 36.4965 54.6363C34.9605 54.6363 33.6879 53.3637 33.6879 51.8277C33.6879 50.2918 34.9605 49.0191 36.4965 49.0191C38.0763 49.0191 39.3051 50.2918 39.3051 51.8277Z" fill="#EE7203"></path><path d="M47.1165 59.4636C47.1165 60.9996 45.8438 62.2723 44.3079 62.2723C42.7719 62.2723 41.4993 60.9996 41.4993 59.4636C41.4993 57.9277 42.7719 56.655 44.3079 56.655C45.8877 56.655 47.1165 57.9277 47.1165 59.4636Z" fill="#EE7203"></path><path d="M57.8244 62.0967C57.8244 63.6327 56.5517 64.9053 55.0158 64.9053C53.4798 64.9053 52.2072 63.6327 52.2072 62.0967C52.2072 60.5607 53.4798 59.2881 55.0158 59.2881C56.5956 59.2881 57.8244 60.5607 57.8244 62.0967Z" fill="#EE7203"></path><path d="M68.0495 59.4636C68.0495 60.9996 66.7768 62.2723 65.2409 62.2723C63.7049 62.2723 62.4323 60.9996 62.4323 59.4636C62.4323 57.9277 63.7049 56.655 65.2409 56.655C66.8207 56.655 68.0495 57.9277 68.0495 59.4636Z" fill="#EE7203"></path><path d="M75.8171 51.7838C75.8171 53.3198 74.5444 54.5924 73.0084 54.5924C71.4725 54.5924 70.1998 53.3198 70.1998 51.7838C70.1998 50.2479 71.4725 48.9752 73.0084 48.9752C74.5883 48.9752 75.8171 50.2479 75.8171 51.7838Z" fill="#EE7203"></path><path d="M78.6257 41.2954C78.6257 42.8314 77.353 44.104 75.817 44.104C74.2811 44.104 73.0084 42.8314 73.0084 41.2954C73.0084 39.7595 74.2811 38.4868 75.817 38.4868C77.3969 38.4868 78.6257 39.7595 78.6257 41.2954Z" fill="#EE7203"></path><path d="M75.8171 30.7631C75.8171 32.299 74.5444 33.5717 73.0084 33.5717C71.4725 33.5717 70.1998 32.299 70.1998 30.7631C70.1998 29.2271 71.4725 27.9545 73.0084 27.9545C74.5883 27.9984 75.8171 29.2271 75.8171 30.7631Z" fill="#EE7203"></path><path d="M39.3929 30.7631C39.3929 32.299 38.1202 33.5717 36.5842 33.5717C35.0483 33.5717 33.7756 32.299 33.7756 30.7631C33.7756 29.2271 35.0483 27.9545 36.5842 27.9545C38.1641 27.9545 39.3929 29.2271 39.3929 30.7631Z" fill="#EE7203"></path><path d="M46.9849 23.0833C46.9849 24.6192 45.7123 25.8919 44.1763 25.8919C42.6403 25.8919 41.3677 24.6192 41.3677 23.0833C41.3677 21.5473 42.6403 20.2747 44.1763 20.2747C45.7561 20.2747 46.9849 21.5473 46.9849 23.0833Z" fill="#EE7203"></path><path d="M57.8683 19.9675C57.8683 21.5035 56.5957 22.7761 55.0597 22.7761C53.5238 22.7761 52.2511 21.5035 52.2511 19.9675C52.2511 18.4315 53.5238 17.1589 55.0597 17.1589C56.5957 17.1589 57.8683 18.4315 57.8683 19.9675Z" fill="#EE7203"></path><path d="M68.225 22.9516C68.225 24.4876 66.9524 25.7602 65.4164 25.7602C63.8804 25.7602 62.6078 24.4876 62.6078 22.9516C62.6078 21.4157 63.8804 20.143 65.4164 20.143C66.9962 20.143 68.225 21.4157 68.225 22.9516Z" fill="#EE7203"></path><path d="M47.1605 69.9081L40.7094 84.6534L34.1706 69.9081H29.475V93.8252H34.1706V80.1333L40.6655 94.5274L47.1605 80.0016V93.8252H51.8561V69.9081H47.1605Z" fill="#1D1D1B"></path><path d="M75.7293 69.9081L69.2344 84.6534L62.7395 69.9081H58.0438V93.8252H62.7395V80.1333L69.2344 94.5274L75.7293 80.0016V93.8252H80.3811V69.9081H75.7293Z" fill="#1D1D1B"></path></g><defs><clipPath id="clip0_402_21"><rect width="108" height="108" fill="white" transform="translate(0.949951)"></rect></clipPath></defs></svg>